<svg version="1.1" viewBox="0 0 200 130" xmlns="http://www.w3.org/2000/svg" xmlns:xlink="http://www.w3.org/1999/xlink" xmlns:svgjs="http://svgjs.dev/svgjs" matcher="0.613190619353317"><g viewBox="0 0 200 130" matcher="0.613190619353317"><g matcher="0.613190619353317"><g matcher="0.613190619353317"><g matcher="0.613190619353317"><svg viewBox="0 0 200 130" data-background-color="#ffffff" preserveAspectRatio="xMidYMid meet" height="130" width="200" xmlns="http://www.w3.org/2000/svg" xmlns:xlink="http://www.w3.org/1999/xlink"><rect width="200" height="130" x="0" y="0" opacity="1" fill="#ffffff" data-fill-palette-color="background" id="background"></rect><g id="tight-bounds" transform="matrix(1,0,0,1,122.21300000000001,129.07968456627864)"><svg viewBox="0 0 395.52 141.8406308674427" height="141.8406308674427" width="395.52"><g><svg viewBox="0 0 395.52 141.8406308674427" height="141.8406308674427" width="395.52"><g><svg viewBox="0 0 395.52 141.8406308674427" height="141.8406308674427" width="395.52"><g id="textblocktransform"><svg viewBox="0 0 395.52 141.8406308674427" height="141.8406308674427" width="395.52" id="textblock"><g><svg viewBox="0 0 395.52 141.8406308674427" height="141.8406308674427" width="395.52"><g transform="matrix(1,0,0,1,0,0)"><svg width="395.52" viewBox="3.1500000953674316 -40.5 133.13999938964844 47.75" height="141.8406308674427" data-palette-color="#6b7280"><path d="M13.95 0L3.15 0 3.15-40.5 12.45-40.5Q15.2-40.5 17.23-39.9 19.25-39.3 20.6-38.05 21.95-36.8 22.6-34.88 23.25-32.95 23.25-30.35L23.25-30.35Q23.25-27.85 22.63-26.03 22-24.2 20.73-23.15 19.45-22.1 17.45-21.8L17.45-21.8Q19.9-21.25 21.4-19.93 22.9-18.6 23.63-16.53 24.35-14.45 24.35-11.55L24.35-11.55Q24.35-8.95 23.75-6.8 23.15-4.65 21.88-3.15 20.6-1.65 18.63-0.83 16.65 0 13.95 0L13.95 0ZM8.8-19.3L8.8-4.05 12.6-4.05Q16.4-4.05 17.68-5.83 18.95-7.6 18.95-11.55L18.95-11.55Q18.95-14.1 18.28-15.83 17.6-17.55 16.13-18.43 14.65-19.3 12.15-19.3L12.15-19.3 8.8-19.3ZM8.8-36.3L8.8-23.6 12.15-23.6Q14.55-23.6 15.9-24.28 17.25-24.95 17.8-26.45 18.35-27.95 18.35-30.35L18.35-30.35Q18.35-33.15 17.5-34.4 16.65-35.65 14.85-35.98 13.05-36.3 10.15-36.3L10.15-36.3 8.8-36.3ZM33.05 0.4L33.05 0.4Q31.35 0.4 30.4-0.5 29.45-1.4 29.07-2.75 28.7-4.1 28.7-5.5L28.7-5.5 28.7-28.9 34.05-28.9 34.05-7.1Q34.05-5.55 34.5-4.67 34.95-3.8 36.35-3.8L36.35-3.8Q37.25-3.8 38.22-4.33 39.2-4.85 40.1-5.6L40.1-5.6 40.1-28.9 45.45-28.9 45.45 0 40.1 0 40.1-2.85Q38.7-1.5 36.92-0.55 35.15 0.4 33.05 0.4ZM51.1 7.25L50.45 7.25 50.45 3.15Q52.4 3.15 53.55 2.98 54.7 2.8 55.2 2.33 55.7 1.85 55.7 1L55.7 1Q55.7 0.55 55.35-1 55-2.55 54.6-4.3L54.6-4.3 48.8-28.9 54.2-28.9 58.1-7.3 61.85-28.9 67.25-28.9 60.35 1.6Q59.9 3.7 58.7 4.93 57.5 6.15 55.62 6.7 53.75 7.25 51.1 7.25L51.1 7.25ZM77.54 0L72.19 0 72.19-24.95 68.74-24.95 68.74-28.9 72.19-28.9 72.19-30.4Q72.19-33.1 72.62-35.02 73.04-36.95 74.39-38 75.74-39.05 78.44-39.05L78.44-39.05Q79.44-39.05 80.22-38.98 80.99-38.9 81.94-38.7L81.94-38.7 81.94-34.8Q81.49-34.9 80.94-34.98 80.39-35.05 79.94-35.05L79.94-35.05Q78.39-35.05 77.97-34.02 77.54-33 77.54-31.3L77.54-31.3 77.54-28.9 81.94-28.9 81.94-24.95 77.54-24.95 77.54 0ZM90.04 0.4L90.04 0.4Q88.34 0.4 87.04-0.58 85.74-1.55 84.99-3.08 84.24-4.6 84.24-6.3L84.24-6.3Q84.24-9 85.14-10.85 86.04-12.7 87.62-13.98 89.19-15.25 91.27-16.2 93.34-17.15 95.64-18.05L95.64-18.05 95.64-20.1Q95.64-21.85 95.44-23 95.24-24.15 94.62-24.73 93.99-25.3 92.74-25.3L92.74-25.3Q91.64-25.3 90.97-24.8 90.29-24.3 89.99-23.38 89.69-22.45 89.69-21.2L89.69-21.2 89.69-19.75 84.39-19.95Q84.49-24.75 86.59-27.03 88.69-29.3 93.09-29.3L93.09-29.3Q97.39-29.3 99.19-26.95 100.99-24.6 100.99-20.15L100.99-20.15 100.99-6.95Q100.99-5.6 101.07-4.35 101.14-3.1 101.27-2.02 101.39-0.95 101.49 0L101.49 0 96.59 0Q96.44-0.8 96.22-2.02 95.99-3.25 95.89-4.25L95.89-4.25Q95.39-2.55 93.97-1.07 92.54 0.4 90.04 0.4ZM92.14-4.2L92.14-4.2Q92.94-4.2 93.64-4.65 94.34-5.1 94.89-5.68 95.44-6.25 95.64-6.6L95.64-6.6 95.64-14.8Q94.39-14.1 93.29-13.4 92.19-12.7 91.37-11.93 90.54-11.15 90.07-10.18 89.59-9.2 89.59-7.95L89.59-7.95Q89.59-6.2 90.24-5.2 90.89-4.2 92.14-4.2ZM112.84 0.4L112.84 0.4Q109.29 0.4 107.14-1.83 104.99-4.05 104.69-7.7L104.69-7.7 109.14-9.05Q109.54-6.3 110.49-4.93 111.44-3.55 113.29-3.55L113.29-3.55Q114.74-3.55 115.49-4.38 116.24-5.2 116.24-6.6L116.24-6.6Q116.24-7.85 115.69-8.85 115.14-9.85 113.89-10.9L113.89-10.9 108.94-15.15Q107.44-16.45 106.41-18.05 105.39-19.65 105.39-22.2L105.39-22.2Q105.39-24.5 106.31-26.08 107.24-27.65 108.91-28.48 110.59-29.3 112.84-29.3L112.84-29.3Q116.29-29.3 118.11-27.08 119.94-24.85 120.19-21.7L120.19-21.7 116.59-20.35Q116.39-21.85 115.99-22.98 115.59-24.1 114.89-24.73 114.19-25.35 113.04-25.35L113.04-25.35Q111.74-25.35 110.96-24.48 110.19-23.6 110.19-22.4L110.19-22.4Q110.19-21.65 110.51-20.93 110.84-20.2 111.64-19.5L111.64-19.5 116.74-14.8Q117.79-13.85 118.71-12.75 119.64-11.65 120.24-10.25 120.84-8.85 120.84-7L120.84-7Q120.84-4.55 119.84-2.9 118.84-1.25 117.04-0.43 115.24 0.4 112.84 0.4ZM132.54 0.4L132.54 0.4Q130.29 0.4 128.91-0.45 127.54-1.3 126.91-2.85 126.29-4.4 126.29-6.5L126.29-6.5 126.29-25.35 123.24-25.35 123.24-28.9 126.29-28.9 126.29-37.35 131.64-37.35 131.64-28.9 136.29-28.9 136.29-25.35 131.64-25.35 131.64-6.85Q131.64-5.15 132.19-4.42 132.74-3.7 134.29-3.7L134.29-3.7Q134.69-3.7 135.21-3.75 135.74-3.8 136.24-3.85L136.24-3.85 136.24 0.1Q135.24 0.25 134.39 0.33 133.54 0.4 132.54 0.4Z" opacity="1" transform="matrix(1,0,0,1,0,0)" fill="#6b7280" class="wordmark-text-0" data-fill-palette-color="primary" id="text-0"></path></svg></g></svg></g></svg></g></svg></g></svg></g><defs></defs></svg><rect width="395.52" height="141.8406308674427" fill="none" stroke="none" visibility="hidden"></rect></g></svg></g></g></g></g><rect width="407.49031575520837" height="153.84062957763675" x="117.25484212239587" y="124.07967885335289" rx="2.5" ry="2.5" fill="transparent" class="logo-element-hover-target"></rect></svg>