<svg version="1.1" viewBox="0 0 200 130" xmlns="http://www.w3.org/2000/svg" xmlns:xlink="http://www.w3.org/1999/xlink" xmlns:svgjs="http://svgjs.dev/svgjs" matcher="0.027170526622999347"><g viewBox="0 0 200 130" matcher="0.027170526622999347"><g matcher="0.027170526622999347"><g matcher="0.027170526622999347"><g matcher="0.027170526622999347"><svg viewBox="0 0 200 130" data-background-color="#ffffff" preserveAspectRatio="xMidYMid meet" height="130" width="200" xmlns="http://www.w3.org/2000/svg" xmlns:xlink="http://www.w3.org/1999/xlink"><rect width="200" height="130" x="0" y="0" opacity="1" fill="#ffffff" data-fill-palette-color="background" id="background"></rect><g id="tight-bounds" transform="matrix(1,0,0,1,122.21300000000001,124.23974913006654)"><svg viewBox="0 0 395.52 151.52050173986692" height="151.52050173986692" width="395.52"><g><svg viewBox="0 0 395.52 151.52050173986692" height="151.52050173986692" width="395.52"><g><svg viewBox="0 0 395.52 151.52050173986692" height="151.52050173986692" width="395.52"><g id="textblocktransform"><svg viewBox="0 0 395.52 151.52050173986692" height="151.52050173986692" width="395.52" id="textblock"><g><svg viewBox="0 0 395.52 151.52050173986692" height="151.52050173986692" width="395.52"><path d="M394.594 32.498C392.735 16.77 387.435 12.398 387.435 12.398 371.165-3.801 350.86-0.31 332.619 2.018 300.414 2.112 268.339 5.572 236.208 7.428 168.767 7.711 100.749 3.056 33.643 14.537 27.339 18.06-6.54 15.229 1.121 34.511 3.129 42.533 10.456 51.434 10.232 58.795 11.236 60.085 12.631 57.128 13.226 58.984 15.309 63.985 18.711 61.626 21.501 64.583 17.614 72.478 20.403 79.052 23.062 85.941 18.377 87.734 12.371 86.885 9.675 92.83 9.396 97.139 7.89 96.322 6.235 96.133 5.026 96.007 2.59 96.479 2.999 97.831 4.394 102.455-1.594 105.129 2.162 109.659-0.422 114.566 3.948 118.812 3.353 124.128 3.278 125.198 3.687 126.11 4.338 126.362 7.22 127.714 3.018 130.356 3.464 133.219 33.029 152.784 65.104 139.258 95.394 148.255 103.259 141.964 97.346 150.488 100.489 149.167 102.943 147.626 104.728 154.011 107.499 150.394 107.927 149.356 107.276 146.902 108.8 147.374 109.6 147.626 110.307 147.563 110.418 146.116 110.586 143.945 109.117 145.298 108.726 144.165 112.947 138.441 111.906 152.061 115.866 151.495 115.68 149.827 114.528 147.437 116.889 147.751 119.232 145.361 119.306 143.379 121.389 148.758 121.463 149.922 121.835 150.74 122.43 151.306 128.938 145.455 135.409 153.382 142.233 150.74 146.417 147.846 150.433 152.312 154.672 151.211 156.16 150.331 157.666 148.758 159.098 151.4 176.632 151.966 195.319 149.607 211.943 151.495 256.364 147.972 303.835 152.942 350.674 148.286 361.719 146.493 373.192 143.945 383.958 141.901 383.958 141.901 392.679 136.302 392.679 111.137S394.538 89.118 394.817 69.081C395.096 49.044 396.398 48.226 394.538 32.498Z" opacity="1" fill="#6b7280" data-fill-palette-color="tertiary"></path><g transform="matrix(1,0,0,1,55.76832,26.230666666666668)"><svg width="283.98335999999995" viewBox="3.799999952316284 -37.45000076293945 137.739990234375 48.05000305175781" height="99.05916840653357" data-palette-color="#ffffff"><path d="M16-18.2Q19.5-17.5 21.45-15.58 23.4-13.65 23.4-9.75L23.4-9.75Q23.4-4.9 20.23-2.45 17.05 0 11.5 0L11.5 0 3.8 0 3.8-34.45 10.35-34.45Q16.05-34.45 19.1-32.2 22.15-29.95 22.15-25.75L22.15-25.75Q22.15-22.8 20.53-20.9 18.9-19 16-18.2L16-18.2ZM10.8-30.85L8.35-30.85 8.35-19.8 11.3-19.8Q14.4-19.8 15.95-21.23 17.5-22.65 17.5-25.4L17.5-25.4Q17.5-28.35 15.88-29.6 14.25-30.85 10.8-30.85L10.8-30.85ZM11.5-3.65Q15-3.65 16.82-5.03 18.65-6.4 18.65-9.75L18.65-9.75Q18.65-13.2 16.93-14.73 15.2-16.25 11.65-16.25L11.65-16.25 8.35-16.25 8.35-3.65 11.5-3.65ZM45.35-26.35L45.35 0 41.55 0 41.25-3.7Q40-1.55 38.42-0.48 36.85 0.6 34.75 0.6L34.75 0.6Q31.9 0.6 30.2-1.35 28.5-3.3 28.5-6.45L28.5-6.45 28.5-26.35 32.9-26.35 32.9-6.9Q32.9-2.85 35.75-2.85L35.75-2.85Q37.4-2.85 38.65-4.03 39.9-5.2 40.95-7.3L40.95-7.3 40.95-26.35 45.35-26.35ZM69.4-26.35L62.2 0.15Q60.95 4.7 58.5 7.35 56.05 10 51.7 10.6L51.7 10.6 51.2 7.25Q54.35 6.55 55.8 4.95 57.25 3.35 58.25 0L58.25 0 56.6 0 49.5-26.35 54-26.35 59.5-3.2 64.95-26.35 69.4-26.35ZM81.54-33.9Q79.94-33.9 79.19-33.1 78.44-32.3 78.44-30.55L78.44-30.55 78.44-26.35 83.74-26.35 83.24-22.9 78.44-22.9 78.44 0 74.04 0 74.04-22.9 70.39-22.9 70.39-26.35 74.04-26.35 74.04-30.5Q74.04-33.6 75.92-35.52 77.79-37.45 81.19-37.45L81.19-37.45Q83.94-37.45 86.54-36.1L86.54-36.1 85.24-33Q83.39-33.9 81.54-33.9L81.54-33.9ZM102.89-5.6Q102.89-4.2 103.29-3.53 103.69-2.85 104.59-2.45L104.59-2.45 103.64 0.6Q101.79 0.3 100.72-0.58 99.64-1.45 99.19-3.2L99.19-3.2Q97.04 0.6 92.89 0.6L92.89 0.6Q89.64 0.6 87.72-1.58 85.79-3.75 85.79-7.35L85.79-7.35Q85.79-11.55 88.39-13.78 90.99-16 95.94-16L95.94-16 98.54-16 98.54-18.4Q98.54-21 97.52-22.2 96.49-23.4 94.34-23.4L94.34-23.4Q91.79-23.4 88.39-22.05L88.39-22.05 87.29-25.15Q91.34-26.9 94.89-26.9L94.89-26.9Q98.94-26.9 100.92-24.73 102.89-22.55 102.89-18.6L102.89-18.6 102.89-5.6ZM93.79-2.7Q96.89-2.7 98.54-6.9L98.54-6.9 98.54-13.05 96.44-13.05Q93.29-13.05 91.82-11.7 90.34-10.35 90.34-7.55L90.34-7.55Q90.34-5.15 91.24-3.93 92.14-2.7 93.79-2.7L93.79-2.7ZM116.64-26.9Q120.99-26.9 124.09-23.95L124.09-23.95 122.19-21.4Q120.79-22.45 119.49-22.98 118.19-23.5 116.74-23.5L116.74-23.5Q114.99-23.5 113.96-22.53 112.94-21.55 112.94-19.85L112.94-19.85Q112.94-18.2 113.94-17.25 114.94-16.3 117.74-15.3L117.74-15.3Q121.34-14 123.04-12.2 124.74-10.4 124.74-7.3L124.74-7.3Q124.74-3.55 122.21-1.48 119.69 0.6 115.94 0.6L115.94 0.6Q110.94 0.6 107.59-2.85L107.59-2.85 109.89-5.3Q112.69-2.85 115.84-2.85L115.84-2.85Q117.84-2.85 119.04-3.95 120.24-5.05 120.24-7.05L120.24-7.05Q120.24-8.4 119.79-9.25 119.34-10.1 118.24-10.8 117.14-11.5 115.04-12.25L115.04-12.25Q111.54-13.55 110.04-15.33 108.54-17.1 108.54-19.7L108.54-19.7Q108.54-21.7 109.56-23.35 110.59-25 112.44-25.95 114.29-26.9 116.64-26.9L116.64-26.9ZM139.84-3.95L141.54-1.2Q139.29 0.6 136.49 0.6L136.49 0.6Q133.54 0.6 131.91-1.15 130.29-2.9 130.29-5.85L130.29-5.85 130.29-22.9 126.74-22.9 126.74-26.35 130.29-26.35 130.29-32.3 134.69-32.85 134.69-26.35 139.79-26.35 139.34-22.9 134.69-22.9 134.69-5.8Q134.69-3.05 137.04-3.05L137.04-3.05Q137.84-3.05 138.44-3.25 139.04-3.45 139.84-3.95L139.84-3.95Z" opacity="1" transform="matrix(1,0,0,1,0,0)" fill="#ffffff" class="wordmark-text-0" data-fill-palette-color="quaternary" id="text-0"></path></svg></g></svg></g></svg></g></svg></g><g></g></svg></g><defs></defs></svg><rect width="395.52" height="151.52050173986692" fill="none" stroke="none" visibility="hidden"></rect></g></svg></g></g></g></g><rect width="295.9627583821614" height="111.05914306200628" x="173.01864624023443" y="145.47042846679688" rx="2.5" ry="2.5" fill="transparent" class="logo-element-hover-target"></rect></svg>