<svg viewBox="0 0 640 400" data-background-color="#ffffff" preserveAspectRatio="xMidYMid meet" height="400" width="640" xmlns="http://www.w3.org/2000/svg" xmlns:xlink="http://www.w3.org/1999/xlink"><rect width="640" height="400" x="0" y="0" opacity="1" fill="#ffffff" data-fill-palette-color="background" id="background"></rect><g id="tight-bounds" transform="matrix(1,0,0,1,153.04772721475248,33.047727214752484)"><svg viewBox="0 0 333.90454557049503 333.90454557049503" height="333.90454557049503" width="333.90454557049503"><g><svg></svg></g><g><svg viewBox="0 0 333.90454557049503 333.90454557049503" height="333.90454557049503" width="333.90454557049503"><g><path d="M0 166.952c0-92.205 74.747-166.952 166.952-166.952 92.205 0 166.952 74.747 166.953 166.952 0 92.205-74.747 166.952-166.953 166.953-92.205 0-166.952-74.747-166.952-166.953zM166.952 330.191c90.155 0 163.239-73.085 163.239-163.239 0-90.155-73.085-163.239-163.239-163.239-90.155 0-163.239 73.085-163.239 163.239 0 90.155 73.085 163.239 163.239 163.239z" data-fill-palette-color="tertiary" fill="#000000" stroke="transparent"></path><ellipse rx="160.27418187383762" ry="160.27418187383762" cx="166.95227278524752" cy="166.95227278524752" fill="#000000" stroke="transparent" stroke-width="0" fill-opacity="1" data-fill-palette-color="tertiary"></ellipse></g><g transform="matrix(1,0,0,1,89.3530932304792,71.17305217166896)"><svg viewBox="0 0 155.19835910953663 191.55844122715712" height="191.55844122715712" width="155.19835910953663"><g><svg viewBox="0 0 155.19835910953663 191.55844122715712" height="191.55844122715712" width="155.19835910953663"><g><svg viewBox="0 0 213.1584412271571 263.0974900131901" height="191.55844122715712" width="155.19835910953663"><g transform="matrix(1,0,0,1,0,158.24970683096248)"><svg viewBox="0 0 213.1584412271571 104.84778318222764" height="104.84778318222764" width="213.1584412271571"><g id="textblocktransform"><svg viewBox="0 0 213.1584412271571 104.84778318222764" height="104.84778318222764" width="213.1584412271571" id="textblock"><g><svg viewBox="0 0 213.1584412271571 56.5498842454288" height="56.5498842454288" width="213.1584412271571"><g transform="matrix(1,0,0,1,0,0)"><svg width="213.1584412271571" viewBox="3.799999952316284 -24.049999237060547 92.33999633789062 24.5" height="56.5498842454288" data-palette-color="#ffffff"><path d="M3.8-23.75L6.35-23.75 6.45-21.75Q11.3-24.05 14.5-24.05 17.7-24.05 19.53-21.85 21.35-19.65 21.35-15.85L21.35-15.85 21.35 0 18.7 0 18.7-15.85Q18.7-18.3 17.5-19.9L17.5-19.9Q16.3-21.45 13.9-21.45 11.5-21.45 6.45-19.25L6.45-19.25 6.45 0 3.8 0 3.8-23.75ZM28.35-11.85Q28.35-17.6 30.72-20.83 33.1-24.05 37.65-24.05 42.2-24.05 44.42-21.05 46.65-18.05 46.65-13.05L46.65-13.05 46.5-10.55 31.2-10.55Q31.45-6.8 33.2-4.48 34.95-2.15 38.02-2.15 41.1-2.15 45.25-3.6L45.25-3.6 46-1.1Q41.95 0.45 38.4 0.45L38.4 0.45Q33.5 0.45 30.92-2.83 28.35-6.1 28.35-11.85ZM37.85-21.5L37.85-21.5Q31.55-21.5 31.2-13.05L31.2-13.05 43.8-13.05Q43.8-21.5 37.85-21.5ZM60.15 0L52.65-23.75 55.65-23.75 62.2-2.4 63.1-2.4 69.4-23.75 72.4-23.75 65.15 0 60.15 0ZM85.89-2.15L85.89-2.15Q87.74-2.15 89.92-3.33 92.09-4.5 93.09-5.5L93.09-5.5 93.09-11.45Q89.79-11.7 86.79-11.7 83.79-11.7 82.29-10.43 80.79-9.15 80.79-7L80.79-7Q80.79-2.15 85.89-2.15ZM85.84 0.45L85.84 0.45Q82.19 0.45 80.09-1.43 77.99-3.3 77.99-6.75 77.99-10.2 80.29-12.1L80.29-12.1Q82.59-14.05 86.39-14.05 90.19-14.05 93.09-13.75L93.09-13.75Q93.09-18.2 91.99-19.83 90.89-21.45 87.54-21.45 84.19-21.45 79.64-19.85L79.64-19.85 78.89-22.35Q83.54-24.05 87.29-24.05L87.29-24.05Q92.24-24.05 93.99-21.85 95.74-19.65 95.74-14.15L95.74-14.15 95.74-3.65 96.14 0.15 93.59 0.4 93.09-2.6Q91.94-1.6 89.84-0.58 87.74 0.45 85.84 0.45Z" opacity="1" transform="matrix(1,0,0,1,0,0)" fill="#ffffff" class="wordmark-text-0" data-fill-palette-color="quaternary" id="text-0"></path></svg></g></svg></g><g transform="matrix(1,0,0,1,0,69.89995471855265)"><svg viewBox="0 0 213.1584412271571 34.947828463674995" height="34.947828463674995" width="213.1584412271571"><g transform="matrix(1,0,0,1,0,0)"><svg width="213.1584412271571" viewBox="4.21999979019165 -26.510000228881836 168.4199981689453 27.610000610351562" height="34.947828463674995" data-palette-color="#ffffff"><path d="M22.29 0L22.29-23.41Q21.68-23.8 20.97-23.8 20.26-23.8 19.51-23.47 18.75-23.14 17.92-22.56L17.92-22.56Q16.19-21.31 14.72-19.24L14.72-19.24 14.72 0 4.22 0 4.22-26.07 14.72-26.07 14.72-21.9Q18.9-26.51 24.17-26.51L24.17-26.51Q32.79-26.51 32.79-18.16L32.79-18.16 32.79 0 22.29 0ZM79.18-5.93L79.18-5.93Q80.13-5.93 80.13-5.05L80.13-5.05Q80.13-4.39 79.28-3.49L79.28-3.49Q75.42 0.46 68.7 0.46L68.7 0.46Q62.67 0.46 58.55-3.17L58.55-3.17Q54.28-6.96 54.28-12.74L54.28-12.74Q54.28-18.65 58.13-22.46L58.13-22.46Q62.21-26.51 68.97-26.51L68.97-26.51Q74.39-26.51 78.08-23.22L78.08-23.22Q82.06-19.68 82.06-13.92L82.06-13.92Q82.06-13.09 82.01-12.16L82.01-12.16 65.9-12.16 65.9-1.68Q67.56-1.34 69.63-1.34L69.63-1.34Q74.03-1.34 77.13-4.25L77.13-4.25Q77.76-4.88 78.03-5.25L78.03-5.25Q78.59-5.93 79.18-5.93ZM72.66-13.94L72.66-24.27Q71.07-24.73 69.07-24.73 67.07-24.73 65.9-24.46L65.9-24.46 65.9-13.94 72.66-13.94ZM113.29 1.1L99.88-26.07 110.94-26.07 117.58-12.38 121.76-20.68Q123.05-23.34 123.38-24.63 123.71-25.93 124.04-26.22 124.37-26.51 124.85-26.51 125.32-26.51 125.59-26.2 125.86-25.88 125.86-25.56 125.86-25.24 125.8-24.93 125.74-24.61 125.57-24.07L125.57-24.07Q125.2-23.07 124.03-20.61L124.03-20.61 113.29 1.1ZM162.19 0L162.19-1.61Q159.07 0.46 155.26 0.46L155.26 0.46Q150.2 0.46 147.15-2.08L147.15-2.08Q143.98-4.69 143.98-9.33L143.98-9.33Q143.98-13.43 147.13-16.06L147.13-16.06Q150.35-18.73 155.6-18.73L155.6-18.73Q159.11-18.73 162.19-17.38L162.19-17.38 162.19-24.1Q159.97-24.73 158.27-24.73 156.58-24.73 155.4-24.58 154.23-24.44 153.18-24.15L153.18-24.15Q150.91-23.51 149.74-22.44L149.74-22.44Q149.06-21.8 148.49-21.8 147.93-21.8 147.64-22.08 147.35-22.36 147.35-22.71 147.35-23.05 147.47-23.33 147.59-23.61 147.93-23.9L147.93-23.9Q148.67-24.54 150.37-25.17L150.37-25.17Q153.91-26.51 157.48-26.51L157.48-26.51Q168.32-26.51 171.32-21.34L171.32-21.34Q172.64-19.04 172.64-15.31L172.64-15.31 172.64 0 162.19 0ZM162.19-3.71L162.19-15.48Q159.11-16.97 156.06-16.97L156.06-16.97Q155.57-16.97 155.14-16.89L155.14-16.89 155.14-1.37Q155.26-1.34 155.4-1.34 155.55-1.34 155.7-1.34L155.7-1.34Q159.04-1.34 162.19-3.71L162.19-3.71Z" opacity="1" transform="matrix(1,0,0,1,0,0)" fill="#ffffff" class="slogan-text-1" data-fill-palette-color="quaternary" id="text-1"></path></svg></g></svg></g></svg></g></svg></g><g transform="matrix(1,0,0,1,81.70758174732589,0)"><svg viewBox="0 0 49.74327773250533 144.89963635783863" height="144.89963635783863" width="49.74327773250533"><g><svg xmlns="http://www.w3.org/2000/svg" xmlns:xlink="http://www.w3.org/1999/xlink" version="1.1" x="0" y="0" viewBox="33.2139892578125 5.5279998779296875 30.53400421142578 88.94400024414062" enable-background="new 0 0 100 100" xml:space="preserve" height="144.89963635783863" width="49.74327773250533" class="icon-icon-0" data-fill-palette-color="quaternary" id="icon-0"><path fill="#ffffff" d="M58.989 23.33c-0.003 0-0.005 0-0.005 0l-3.17-0.212c0.246-0.859 0.366-1.881 0.366-3.083v-6.877c0-4.207-3.423-7.63-7.628-7.63-4.207 0-7.629 3.423-7.629 7.63v6.877c0 1.05 0.031 2.127 0.286 3.116l-3.526 0.176c-2.464 0-4.469 2.295-4.469 5.116v21.715c0 2.823 2.005 5.116 4.469 5.116h1.102l-0.058 34.789c0 2.433 1.979 4.409 4.409 4.409 2.431 0 4.407-1.977 4.404-4.319l1.514-20.124 1.645 20.034c0 2.433 1.979 4.409 4.408 4.409 2.431 0 4.409-1.977 4.409-4.409V60.657l0.022-5.452c2.371-0.333 4.21-2.456 4.21-5.047V28.443C63.749 25.624 61.58 23.33 58.989 23.33z" data-fill-palette-color="quaternary"></path></svg></g></svg></g><g></g></svg></g></svg></g></svg></g></svg></g><defs></defs></svg><rect width="333.90454557049503" height="333.90454557049503" fill="none" stroke="none" visibility="hidden"></rect></g></svg>