<svg xmlns="http://www.w3.org/2000/svg" version="1.1" xmlns:xlink="http://www.w3.org/1999/xlink" xmlns:svgjs="http://svgjs.com/svgjs" viewBox="0 0 640 400" class="" xmlns:xlink="http://www.w3.org/1999/xlink" xmlns:svgjs="http://svgjs.dev/svgjs"><g viewBox="0 0 640 400"><g><g><g><svg viewBox="0 0 640 400" data-background-color="#ffffff" preserveAspectRatio="xMidYMid meet" height="400" width="640" xmlns="http://www.w3.org/2000/svg" xmlns:xlink="http://www.w3.org/1999/xlink"><rect width="640" height="400" x="0" y="0" opacity="1" fill="#ffffff" data-fill-palette-color="background" id="background"></rect><g id="tight-bounds" transform="matrix(1,0,0,1,132.46023559570312,86.06666564941406)"><svg viewBox="0 0 375.07952880859375 227.86666870117188" height="227.86666870117188" width="375.07952880859375"><g><svg></svg></g><g><svg viewBox="0 0 375.07952880859375 227.86666870117188" height="227.86666870117188" width="375.07952880859375"><g transform="matrix(1,0,0,1,-10.220239639282227,-19.33331298828125)"><path xmlns="http://www.w3.org/2000/svg" d="M10.22 227.867v-208.534h375.08v208.534h-1.131v-26.75l-8.956 0v-171.697h-354.906v188.36l125.897 0 0 10.087z" fill="#6b7280" fill-rule="nonzero" stroke="none" stroke-width="1" stroke-linecap="butt" stroke-linejoin="miter" stroke-miterlimit="10" stroke-dasharray="" stroke-dashoffset="0" font-family="none" font-weight="none" font-size="none" text-anchor="none" style="mix-blend-mode: normal" data-fill-palette-color="tertiary"></path><g><path xmlns="http://www.w3.org/2000/svg" d="M211.868 233.074l-0.086-24.894c0-1.895-0.775-2.843-2.326-2.843v0h-2.584l-0.172-0.344 0.603-3.36c0.517 0.057 1.493 0.115 2.928 0.173 1.436 0.057 2.9 0.086 4.393 0.086v0c1.263 0 2.687-0.075 4.273-0.224 1.573-0.138 2.59-0.235 3.049-0.293v0l-0.345 3.532c-1.665 0.23-2.854 0.672-3.566 1.326-0.724 0.666-1.114 1.66-1.171 2.98v0l-1.034 37.039-3.359 0.948c-5.455-7.982-10.968-15.792-16.539-23.429-5.57-7.638-8.355-11.399-8.355-11.284v0h-0.431l-0.258 26.099c0 1.091 0.172 1.838 0.517 2.24 0.345 0.402 0.919 0.603 1.723 0.603v0l3.445-0.086 0.259 0.258-0.69 3.446c-0.517-0.057-1.533-0.115-3.049-0.173-1.528-0.057-3.124-0.086-4.789-0.086v0c-1.321 0-2.728 0.075-4.221 0.224-1.493 0.138-2.469 0.235-2.928 0.293v0l0.43-3.532c1.436-0.172 2.498-0.591 3.187-1.257 0.689-0.655 1.062-1.642 1.12-2.963v0l0.948-28.426c0-1.436-0.413-2.429-1.241-2.98-0.838-0.54-2.435-0.953-4.789-1.24v0l-0.345-0.431 0.603-2.929c0.459 0.057 1.332 0.126 2.619 0.207 1.298 0.092 2.607 0.138 3.928 0.138v0c1.263 0 2.383-0.029 3.359-0.086 0.976-0.057 1.608-0.115 1.895-0.173v0c4.651 6.834 9.573 13.811 14.764 20.932 5.203 7.121 7.804 10.624 7.804 10.508v0zM229.612 245.477l0.431-3.618c2.125-0.23 3.56-0.747 4.307-1.55 0.747-0.804 1.12-2.182 1.119-4.135v0l0.087-27.305c0-1.436-0.172-2.4-0.517-2.894-0.345-0.482-1.034-0.724-2.068-0.724v0l-2.325 0.086-0.173-0.344 0.517-3.273c0.689 0 2.039 0.029 4.049 0.086 2.01 0.057 4.192 0.086 6.546 0.086v0c9.59 0 16.682-0.258 21.276-0.775v0l0.258 0.43c-0.115 0.632-0.373 2.067-0.775 4.307-0.402 2.24-0.689 4.651-0.861 7.236v0l-4.135 0.344c0-0.23 0.029-0.62 0.086-1.171 0.057-0.54 0.086-1.097 0.087-1.671v0c0-1.493-0.212-2.544-0.638-3.153-0.436-0.597-1.327-0.999-2.67-1.206-1.355-0.195-3.698-0.293-7.029-0.293v0c-1.55 0-2.613 0.04-3.187 0.121-0.574 0.092-0.948 0.293-1.12 0.603-0.172 0.322-0.287 0.913-0.344 1.774v0l-0.517 12.232 7.063 0.086c1.034 0 2.555-0.103 4.565-0.31 2.01-0.195 3.331-0.322 3.963-0.379v0l0.344 0.431-1.033 4.479c-0.632 0-1.878-0.029-3.739-0.086-1.872-0.057-3.842-0.086-5.909-0.087v0c-1.608 0-3.417 0.144-5.426 0.431v0c-0.172 4.364-0.258 8.298-0.259 11.801v0c0 1.321 0.103 2.24 0.31 2.756 0.195 0.517 0.655 0.861 1.378 1.034 0.712 0.172 1.901 0.258 3.567 0.258v0c3.733 0 6.403-0.172 8.01-0.517 1.608-0.345 2.745-1.051 3.411-2.118 0.655-1.057 1.183-2.877 1.585-5.462v0l3.79-0.344 0.345 0.431c-0.172 0.632-0.471 2.107-0.896 4.427-0.436 2.331-0.769 4.761-0.999 7.287v0l-0.517 0.431c-1.55-0.057-4.766-0.144-9.647-0.259-4.881-0.115-8.843-0.172-11.887-0.172v0c-2.354 0-4.537 0.103-6.547 0.31-2.01 0.195-3.302 0.322-3.876 0.379zM287.152 245.908c-0.689-2.354-2.251-7.396-4.686-15.126-2.446-7.718-4.789-14.907-7.029-21.568v0c-0.402-1.263-1.103-2.211-2.102-2.843-1.011-0.632-2.377-1.005-4.1-1.12v0l-0.172-0.258 0.517-3.273c0.632 0 1.78 0.029 3.445 0.086 1.665 0.057 3.302 0.086 4.91 0.086v0c1.723 0 3.79-0.103 6.202-0.31 2.412-0.195 3.991-0.322 4.737-0.379v0l0.259 0.517-0.259 3.101c-2.527 0.172-4.175 0.431-4.944 0.775-0.781 0.345-1.171 0.976-1.171 1.895v0c0 0.919 1.166 5.427 3.497 13.523 2.32 8.097 3.911 13.61 4.772 16.539v0h0.775c2.01-4.824 4.353-10.796 7.029-17.917 2.665-7.121 3.997-11.14 3.997-12.059v0c0-0.919-0.345-1.568-1.034-1.947-0.689-0.368-1.866-0.551-3.532-0.551v0h-3.445l-0.172-0.345 0.43-3.273c0.632 0.057 1.998 0.144 4.1 0.259 2.09 0.115 4.112 0.172 6.065 0.172v0c1.78 0 3.417-0.029 4.909-0.086 1.493-0.057 2.498-0.086 3.015-0.086v0l-0.603 3.531c-1.378 0.057-2.337 0.299-2.877 0.724-0.551 0.436-1.085 1.315-1.602 2.636v0l-14.557 35.833zM334.786 245.391l-0.259-0.431 0.259-3.101c2.412-0.172 4.037-0.431 4.875-0.775 0.827-0.345 1.24-0.919 1.24-1.722v0c0-0.919-0.201-1.895-0.603-2.929v0l-2.067-6.633c-1.149-0.057-3.532-0.086-7.149-0.086v0c-1.665 0-4.135 0.172-7.408 0.517v0l-2.412 6.374c-0.402 1.321-0.603 2.125-0.603 2.412v0c0 0.919 0.316 1.579 0.948 1.981 0.632 0.402 1.665 0.603 3.101 0.603v0h3.703l0.259 0.345-0.517 3.273c-0.574-0.057-1.878-0.144-3.911-0.259-2.044-0.115-4.043-0.172-5.995-0.172v0c-1.838 0-3.486 0.029-4.944 0.086-1.47 0.057-2.464 0.086-2.98 0.086v0l0.516-3.531c1.263-0.172 2.268-0.62 3.015-1.344 0.747-0.712 1.493-1.929 2.24-3.652v0l13.523-34.197 6.116-1.119 0.603 0.086c0 0.23 1.309 4.766 3.928 13.609 2.607 8.843 4.944 16.165 7.011 21.965v0c0.574 1.665 1.309 2.825 2.206 3.48 0.884 0.666 2.303 1.085 4.255 1.258v0l0.172 0.345-0.431 3.1c-0.574 0-1.637-0.029-3.187-0.086-1.55-0.057-3.101-0.086-4.651-0.086v0c-2.354 0-4.594 0.086-6.719 0.259-2.125 0.172-3.503 0.287-4.134 0.344zM325.052 226.183h5.857c2.01 0 4.106-0.115 6.288-0.345v0l-5.254-16.711h-0.603z" fill="#97978d" fill-rule="nonzero" stroke="none" stroke-width="1" stroke-linecap="butt" stroke-linejoin="miter" stroke-miterlimit="10" stroke-dasharray="" stroke-dashoffset="0" font-family="none" font-weight="none" font-size="none" text-anchor="none" style="mix-blend-mode: normal" data-fill-palette-color="secondary"></path></g></g><g transform="matrix(1,0,0,1,29.331764404296877,58.00690018688488)"><svg viewBox="0 0 316.416 111.85286832740212" height="111.85286832740212" width="316.416"><g><svg viewBox="0 0 316.416 111.85286832740212" height="111.85286832740212" width="316.416"><g><svg viewBox="0 0 316.416 111.85286832740212" height="111.85286832740212" width="316.416"><g><svg viewBox="0 0 316.416 111.85286832740212" height="111.85286832740212" width="316.416"><g id="textblocktransform"><svg viewBox="0 0 316.416 111.85286832740212" height="111.85286832740212" width="316.416" id="textblock"><g><svg viewBox="0 0 316.416 111.85286832740212" height="111.85286832740212" width="316.416"><g transform="matrix(1,0,0,1,0,0)"><svg width="316.416" viewBox="2.5999999046325684 -29.350000381469727 84.29000091552734 29.80000114440918" height="111.85286832740212" data-palette-color="#6b7280"><path d="M9.4 0L2.6 0 2.6-28.9 9.4-28.9 9.4-26Q10.95-27.5 12.68-28.43 14.4-29.35 16.4-29.35L16.4-29.35Q18.2-29.35 19.25-28.48 20.3-27.6 20.8-26.15 21.3-24.7 21.3-23L21.3-23 21.3 0 14.5 0 14.5-21.65Q14.5-22.95 14.1-23.65 13.7-24.35 12.55-24.35L12.55-24.35Q11.85-24.35 11.03-23.95 10.2-23.55 9.4-22.95L9.4-22.95 9.4 0ZM35.05 0.45L35.05 0.45Q31.8 0.45 29.75-0.78 27.7-2 26.72-4.38 25.75-6.75 25.75-10.1L25.75-10.1 25.75-18.8Q25.75-22.25 26.72-24.6 27.7-26.95 29.77-28.15 31.85-29.35 35.05-29.35L35.05-29.35Q38.5-29.35 40.42-28.05 42.35-26.75 43.17-24.28 44-21.8 44-18.25L44-18.25 44-14.15 32.5-14.15 32.5-8.45Q32.5-7.05 32.77-6.15 33.05-5.25 33.65-4.85 34.25-4.45 35.1-4.45L35.1-4.45Q36-4.45 36.55-4.88 37.1-5.3 37.35-6.13 37.6-6.95 37.6-8.2L37.6-8.2 37.6-10.6 43.95-10.6 43.95-8.65Q43.95-4.25 41.75-1.9 39.55 0.45 35.05 0.45ZM32.5-19.5L32.5-17.5 37.6-17.5 37.6-20.25Q37.6-21.75 37.35-22.68 37.1-23.6 36.55-24.03 36-24.45 35-24.45L35-24.45Q34.1-24.45 33.55-24 33-23.55 32.75-22.5 32.5-21.45 32.5-19.5L32.5-19.5ZM59.9 0L52.35 0 46.6-28.9 53.25-28.9 56.2-8.15 59.1-28.9 65.65-28.9 59.9 0ZM74.39 0.45L74.39 0.45Q72.44 0.45 71.04-0.58 69.64-1.6 68.89-3.18 68.14-4.75 68.14-6.45L68.14-6.45Q68.14-9.15 69.14-11 70.14-12.85 71.79-14.1 73.44-15.35 75.54-16.28 77.64-17.2 79.79-17.95L79.79-17.95 79.79-20.45Q79.79-21.7 79.62-22.55 79.44-23.4 78.97-23.85 78.49-24.3 77.49-24.3L77.49-24.3Q76.64-24.3 76.12-23.9 75.59-23.5 75.37-22.78 75.14-22.05 75.09-21.1L75.09-21.1 74.99-19.35 68.54-19.6Q68.69-24.6 71.02-26.98 73.34-29.35 78.09-29.35L78.09-29.35Q82.44-29.35 84.42-26.95 86.39-24.55 86.39-20.45L86.39-20.45 86.39-7.1Q86.39-5.5 86.47-4.2 86.54-2.9 86.67-1.85 86.79-0.8 86.89 0L86.89 0 80.79 0Q80.64-1 80.42-2.27 80.19-3.55 80.09-4.15L80.09-4.15Q79.59-2.4 78.19-0.98 76.79 0.45 74.39 0.45ZM76.89-4.6L76.89-4.6Q77.54-4.6 78.12-4.93 78.69-5.25 79.14-5.7 79.59-6.15 79.79-6.5L79.79-6.5 79.79-14.55Q78.69-13.9 77.72-13.25 76.74-12.6 76.02-11.83 75.29-11.05 74.92-10.15 74.54-9.25 74.54-8.05L74.54-8.05Q74.54-6.45 75.17-5.53 75.79-4.6 76.89-4.6Z" opacity="1" transform="matrix(1,0,0,1,0,0)" fill="#6b7280" class="wordmark-text-0" data-fill-palette-color="primary" id="text-0"></path></svg></g></svg></g></svg></g></svg></g></svg></g></svg></g></svg></g></svg></g></svg><rect width="375.07952880859375" height="227.86666870117188" fill="none" stroke="none" visibility="hidden"></rect></g></svg></g></g></g></g><g viewBox="0 0 640 400"><g><g><g><svg viewBox="0 0 640 400" data-background-color="#ffffff" preserveAspectRatio="xMidYMid meet" height="400" width="640" xmlns="http://www.w3.org/2000/svg" xmlns:xlink="http://www.w3.org/1999/xlink"><rect width="640" height="400" x="0" y="0" opacity="1" fill="#ffffff" data-fill-palette-color="background" id="background"></rect><g id="tight-bounds" transform="matrix(1,0,0,1,132.46023559570312,86.06666564941406)"><svg viewBox="0 0 375.07952880859375 227.86666870117188" height="227.86666870117188" width="375.07952880859375"><g><svg></svg></g><g><svg viewBox="0 0 375.07952880859375 227.86666870117188" height="227.86666870117188" width="375.07952880859375"><g transform="matrix(1,0,0,1,-10.220239639282227,-19.33331298828125)"><path xmlns="http://www.w3.org/2000/svg" d="M10.22 227.867v-208.534h375.08v208.534h-1.131v-26.75l-8.956 0v-171.697h-354.906v188.36l125.897 0 0 10.087z" fill="#6b7280" fill-rule="nonzero" stroke="none" stroke-width="1" stroke-linecap="butt" stroke-linejoin="miter" stroke-miterlimit="10" stroke-dasharray="" stroke-dashoffset="0" font-family="none" font-weight="none" font-size="none" text-anchor="none" style="mix-blend-mode: normal" data-fill-palette-color="tertiary"></path><g><path xmlns="http://www.w3.org/2000/svg" d="M211.868 233.074l-0.086-24.894c0-1.895-0.775-2.843-2.326-2.843v0h-2.584l-0.172-0.344 0.603-3.36c0.517 0.057 1.493 0.115 2.928 0.173 1.436 0.057 2.9 0.086 4.393 0.086v0c1.263 0 2.687-0.075 4.273-0.224 1.573-0.138 2.59-0.235 3.049-0.293v0l-0.345 3.532c-1.665 0.23-2.854 0.672-3.566 1.326-0.724 0.666-1.114 1.66-1.171 2.98v0l-1.034 37.039-3.359 0.948c-5.455-7.982-10.968-15.792-16.539-23.429-5.57-7.638-8.355-11.399-8.355-11.284v0h-0.431l-0.258 26.099c0 1.091 0.172 1.838 0.517 2.24 0.345 0.402 0.919 0.603 1.723 0.603v0l3.445-0.086 0.259 0.258-0.69 3.446c-0.517-0.057-1.533-0.115-3.049-0.173-1.528-0.057-3.124-0.086-4.789-0.086v0c-1.321 0-2.728 0.075-4.221 0.224-1.493 0.138-2.469 0.235-2.928 0.293v0l0.43-3.532c1.436-0.172 2.498-0.591 3.187-1.257 0.689-0.655 1.062-1.642 1.12-2.963v0l0.948-28.426c0-1.436-0.413-2.429-1.241-2.98-0.838-0.54-2.435-0.953-4.789-1.24v0l-0.345-0.431 0.603-2.929c0.459 0.057 1.332 0.126 2.619 0.207 1.298 0.092 2.607 0.138 3.928 0.138v0c1.263 0 2.383-0.029 3.359-0.086 0.976-0.057 1.608-0.115 1.895-0.173v0c4.651 6.834 9.573 13.811 14.764 20.932 5.203 7.121 7.804 10.624 7.804 10.508v0zM229.612 245.477l0.431-3.618c2.125-0.23 3.56-0.747 4.307-1.55 0.747-0.804 1.12-2.182 1.119-4.135v0l0.087-27.305c0-1.436-0.172-2.4-0.517-2.894-0.345-0.482-1.034-0.724-2.068-0.724v0l-2.325 0.086-0.173-0.344 0.517-3.273c0.689 0 2.039 0.029 4.049 0.086 2.01 0.057 4.192 0.086 6.546 0.086v0c9.59 0 16.682-0.258 21.276-0.775v0l0.258 0.43c-0.115 0.632-0.373 2.067-0.775 4.307-0.402 2.24-0.689 4.651-0.861 7.236v0l-4.135 0.344c0-0.23 0.029-0.62 0.086-1.171 0.057-0.54 0.086-1.097 0.087-1.671v0c0-1.493-0.212-2.544-0.638-3.153-0.436-0.597-1.327-0.999-2.67-1.206-1.355-0.195-3.698-0.293-7.029-0.293v0c-1.55 0-2.613 0.04-3.187 0.121-0.574 0.092-0.948 0.293-1.12 0.603-0.172 0.322-0.287 0.913-0.344 1.774v0l-0.517 12.232 7.063 0.086c1.034 0 2.555-0.103 4.565-0.31 2.01-0.195 3.331-0.322 3.963-0.379v0l0.344 0.431-1.033 4.479c-0.632 0-1.878-0.029-3.739-0.086-1.872-0.057-3.842-0.086-5.909-0.087v0c-1.608 0-3.417 0.144-5.426 0.431v0c-0.172 4.364-0.258 8.298-0.259 11.801v0c0 1.321 0.103 2.24 0.31 2.756 0.195 0.517 0.655 0.861 1.378 1.034 0.712 0.172 1.901 0.258 3.567 0.258v0c3.733 0 6.403-0.172 8.01-0.517 1.608-0.345 2.745-1.051 3.411-2.118 0.655-1.057 1.183-2.877 1.585-5.462v0l3.79-0.344 0.345 0.431c-0.172 0.632-0.471 2.107-0.896 4.427-0.436 2.331-0.769 4.761-0.999 7.287v0l-0.517 0.431c-1.55-0.057-4.766-0.144-9.647-0.259-4.881-0.115-8.843-0.172-11.887-0.172v0c-2.354 0-4.537 0.103-6.547 0.31-2.01 0.195-3.302 0.322-3.876 0.379zM287.152 245.908c-0.689-2.354-2.251-7.396-4.686-15.126-2.446-7.718-4.789-14.907-7.029-21.568v0c-0.402-1.263-1.103-2.211-2.102-2.843-1.011-0.632-2.377-1.005-4.1-1.12v0l-0.172-0.258 0.517-3.273c0.632 0 1.78 0.029 3.445 0.086 1.665 0.057 3.302 0.086 4.91 0.086v0c1.723 0 3.79-0.103 6.202-0.31 2.412-0.195 3.991-0.322 4.737-0.379v0l0.259 0.517-0.259 3.101c-2.527 0.172-4.175 0.431-4.944 0.775-0.781 0.345-1.171 0.976-1.171 1.895v0c0 0.919 1.166 5.427 3.497 13.523 2.32 8.097 3.911 13.61 4.772 16.539v0h0.775c2.01-4.824 4.353-10.796 7.029-17.917 2.665-7.121 3.997-11.14 3.997-12.059v0c0-0.919-0.345-1.568-1.034-1.947-0.689-0.368-1.866-0.551-3.532-0.551v0h-3.445l-0.172-0.345 0.43-3.273c0.632 0.057 1.998 0.144 4.1 0.259 2.09 0.115 4.112 0.172 6.065 0.172v0c1.78 0 3.417-0.029 4.909-0.086 1.493-0.057 2.498-0.086 3.015-0.086v0l-0.603 3.531c-1.378 0.057-2.337 0.299-2.877 0.724-0.551 0.436-1.085 1.315-1.602 2.636v0l-14.557 35.833zM334.786 245.391l-0.259-0.431 0.259-3.101c2.412-0.172 4.037-0.431 4.875-0.775 0.827-0.345 1.24-0.919 1.24-1.722v0c0-0.919-0.201-1.895-0.603-2.929v0l-2.067-6.633c-1.149-0.057-3.532-0.086-7.149-0.086v0c-1.665 0-4.135 0.172-7.408 0.517v0l-2.412 6.374c-0.402 1.321-0.603 2.125-0.603 2.412v0c0 0.919 0.316 1.579 0.948 1.981 0.632 0.402 1.665 0.603 3.101 0.603v0h3.703l0.259 0.345-0.517 3.273c-0.574-0.057-1.878-0.144-3.911-0.259-2.044-0.115-4.043-0.172-5.995-0.172v0c-1.838 0-3.486 0.029-4.944 0.086-1.47 0.057-2.464 0.086-2.98 0.086v0l0.516-3.531c1.263-0.172 2.268-0.62 3.015-1.344 0.747-0.712 1.493-1.929 2.24-3.652v0l13.523-34.197 6.116-1.119 0.603 0.086c0 0.23 1.309 4.766 3.928 13.609 2.607 8.843 4.944 16.165 7.011 21.965v0c0.574 1.665 1.309 2.825 2.206 3.48 0.884 0.666 2.303 1.085 4.255 1.258v0l0.172 0.345-0.431 3.1c-0.574 0-1.637-0.029-3.187-0.086-1.55-0.057-3.101-0.086-4.651-0.086v0c-2.354 0-4.594 0.086-6.719 0.259-2.125 0.172-3.503 0.287-4.134 0.344zM325.052 226.183h5.857c2.01 0 4.106-0.115 6.288-0.345v0l-5.254-16.711h-0.603z" fill="#97978d" fill-rule="nonzero" stroke="none" stroke-width="1" stroke-linecap="butt" stroke-linejoin="miter" stroke-miterlimit="10" stroke-dasharray="" stroke-dashoffset="0" font-family="none" font-weight="none" font-size="none" text-anchor="none" style="mix-blend-mode: normal" data-fill-palette-color="secondary"></path></g></g><g transform="matrix(1,0,0,1,29.331764404296877,58.00690018688488)"><svg viewBox="0 0 316.416 111.85286832740212" height="111.85286832740212" width="316.416"><g><svg viewBox="0 0 316.416 111.85286832740212" height="111.85286832740212" width="316.416"><g><svg viewBox="0 0 316.416 111.85286832740212" height="111.85286832740212" width="316.416"><g><svg viewBox="0 0 316.416 111.85286832740212" height="111.85286832740212" width="316.416"><g id="textblocktransform"><svg viewBox="0 0 316.416 111.85286832740212" height="111.85286832740212" width="316.416" id="textblock"><g><svg viewBox="0 0 316.416 111.85286832740212" height="111.85286832740212" width="316.416"><g transform="matrix(1,0,0,1,0,0)"><svg width="316.416" viewBox="2.5999999046325684 -29.350000381469727 84.29000091552734 29.80000114440918" height="111.85286832740212" data-palette-color="#6b7280"><path d="M9.4 0L2.6 0 2.6-28.9 9.4-28.9 9.4-26Q10.95-27.5 12.68-28.43 14.4-29.35 16.4-29.35L16.4-29.35Q18.2-29.35 19.25-28.48 20.3-27.6 20.8-26.15 21.3-24.7 21.3-23L21.3-23 21.3 0 14.5 0 14.5-21.65Q14.5-22.95 14.1-23.65 13.7-24.35 12.55-24.35L12.55-24.35Q11.85-24.35 11.03-23.95 10.2-23.55 9.4-22.95L9.4-22.95 9.4 0ZM35.05 0.45L35.05 0.45Q31.8 0.45 29.75-0.78 27.7-2 26.72-4.38 25.75-6.75 25.75-10.1L25.75-10.1 25.75-18.8Q25.75-22.25 26.72-24.6 27.7-26.95 29.77-28.15 31.85-29.35 35.05-29.35L35.05-29.35Q38.5-29.35 40.42-28.05 42.35-26.75 43.17-24.28 44-21.8 44-18.25L44-18.25 44-14.15 32.5-14.15 32.5-8.45Q32.5-7.05 32.77-6.15 33.05-5.25 33.65-4.85 34.25-4.45 35.1-4.45L35.1-4.45Q36-4.45 36.55-4.88 37.1-5.3 37.35-6.13 37.6-6.95 37.6-8.2L37.6-8.2 37.6-10.6 43.95-10.6 43.95-8.65Q43.95-4.25 41.75-1.9 39.55 0.45 35.05 0.45ZM32.5-19.5L32.5-17.5 37.6-17.5 37.6-20.25Q37.6-21.75 37.35-22.68 37.1-23.6 36.55-24.03 36-24.45 35-24.45L35-24.45Q34.1-24.45 33.55-24 33-23.55 32.75-22.5 32.5-21.45 32.5-19.5L32.5-19.5ZM59.9 0L52.35 0 46.6-28.9 53.25-28.9 56.2-8.15 59.1-28.9 65.65-28.9 59.9 0ZM74.39 0.45L74.39 0.45Q72.44 0.45 71.04-0.58 69.64-1.6 68.89-3.18 68.14-4.75 68.14-6.45L68.14-6.45Q68.14-9.15 69.14-11 70.14-12.85 71.79-14.1 73.44-15.35 75.54-16.28 77.64-17.2 79.79-17.95L79.79-17.95 79.79-20.45Q79.79-21.7 79.62-22.55 79.44-23.4 78.97-23.85 78.49-24.3 77.49-24.3L77.49-24.3Q76.64-24.3 76.12-23.9 75.59-23.5 75.37-22.78 75.14-22.05 75.09-21.1L75.09-21.1 74.99-19.35 68.54-19.6Q68.69-24.6 71.02-26.98 73.34-29.35 78.09-29.35L78.09-29.35Q82.44-29.35 84.42-26.95 86.39-24.55 86.39-20.45L86.39-20.45 86.39-7.1Q86.39-5.5 86.47-4.2 86.54-2.9 86.67-1.85 86.79-0.8 86.89 0L86.89 0 80.79 0Q80.64-1 80.42-2.27 80.19-3.55 80.09-4.15L80.09-4.15Q79.59-2.4 78.19-0.98 76.79 0.45 74.39 0.45ZM76.89-4.6L76.89-4.6Q77.54-4.6 78.12-4.93 78.69-5.25 79.14-5.7 79.59-6.15 79.79-6.5L79.79-6.5 79.79-14.55Q78.69-13.9 77.72-13.25 76.74-12.6 76.02-11.83 75.29-11.05 74.92-10.15 74.54-9.25 74.54-8.05L74.54-8.05Q74.54-6.45 75.17-5.53 75.79-4.6 76.89-4.6Z" opacity="1" transform="matrix(1,0,0,1,0,0)" fill="#6b7280" class="wordmark-text-0" data-fill-palette-color="primary" id="text-0"></path></svg></g></svg></g></svg></g></svg></g></svg></g></svg></g></svg></g></svg></g><defs></defs></svg><rect width="375.07952880859375" height="227.86666870117188" fill="none" stroke="none" visibility="hidden"></rect></g></svg></g></g></g></g><rect width="328.3784026707756" height="123.85285053929118" x="156.8107986646122" y="139.07357473035438" rx="2.5" ry="2.5" class="logo-element-hover-target"></rect></svg>