<?xml version="1.0" encoding="UTF-8" standalone="no"?>
<!-- Created with Inkscape (http://www.inkscape.org/) -->

<svg
   version="1.1"
   id="svg3050"
   width="880"
   height="880"
   viewBox="0 0 880 880"
   sodipodi:docname="engine-piston-publicdomainvectors.org.svg"
   inkscape:version="1.2 (dc2aedaf03, 2022-05-15)"
   xmlns:inkscape="http://www.inkscape.org/namespaces/inkscape"
   xmlns:sodipodi="http://sodipodi.sourceforge.net/DTD/sodipodi-0.dtd"
   xmlns="http://www.w3.org/2000/svg"
   xmlns:svg="http://www.w3.org/2000/svg">
  <defs
     id="defs3054">
    <clipPath
       clipPathUnits="userSpaceOnUse"
       id="clipPath3076">
      <path
         d="M 0,660 H 660 V 0 H 0 Z"
         id="path3074" />
    </clipPath>
  </defs>
  <sodipodi:namedview
     id="namedview3052"
     pagecolor="#ffffff"
     bordercolor="#000000"
     borderopacity="0.25"
     inkscape:showpageshadow="2"
     inkscape:pageopacity="0.0"
     inkscape:pagecheckerboard="0"
     inkscape:deskcolor="#d1d1d1"
     showgrid="false"
     inkscape:zoom="0.95113636"
     inkscape:cx="440.52569"
     inkscape:cy="440.52569"
     inkscape:window-width="1920"
     inkscape:window-height="1017"
     inkscape:window-x="-8"
     inkscape:window-y="-8"
     inkscape:window-maximized="1"
     inkscape:current-layer="g3058">
    <inkscape:page
       x="0"
       y="0"
       id="page3056"
       width="880"
       height="880" />
  </sodipodi:namedview>
  <g
     id="g3058"
     inkscape:groupmode="layer"
     inkscape:label="Page 1"
     transform="matrix(1.3333333,0,0,-1.3333333,0,880)">
    <path
       d="M 0,0.96 H 658.96 V 659.999 H 0 Z"
       style="fill:#333333;fill-opacity:1;fill-rule:nonzero;stroke:none"
       id="path3060" />
    <g
       id="g3062"
       transform="translate(435.1172,599.1592)">
      <path
         d="M 0,0 162.969,-162.97 93.873,-232.066 -69.096,-69.095 Z"
         style="fill:#8f8f8f;fill-opacity:1;fill-rule:evenodd;stroke:none"
         id="path3064" />
    </g>
    <g
       id="g3066"
       transform="translate(506.0166,528.2593)">
      <path
         d="m 0,0 -69.096,-69.095 24.036,-24.036 69.096,69.095 z m -45.299,45.298 35.592,-35.591 -69.096,-69.095 -35.592,35.592 z"
         style="fill:#b0b0b0;fill-opacity:1;fill-rule:evenodd;stroke:none"
         id="path3068" />
    </g>
    <g
       id="g3070">
      <g
         id="g3072"
         clip-path="url(#clipPath3076)">
        <g
           id="g3078"
           transform="translate(377.459,425.001)">
          <path
             d="m 0,0 -15.857,-31.8 c -87.554,-87.055 -167.701,-142.403 -226.969,-160.111 l 97.383,-97.385 c 17.708,59.268 73.057,139.417 160.113,226.97 l 31.8,15.856 z"
             style="fill:#e6e6e6;fill-opacity:1;fill-rule:evenodd;stroke:none"
             id="path3080" />
        </g>
        <g
           id="g3082"
           transform="translate(224.7622,278.4346)">
          <path
             d="M 0,0 52.601,-52.598 C 41.891,-68.705 32.789,-84.128 25.354,-98.735 l -71.489,71.489 C -31.528,-19.81 -16.107,-10.711 0,0 M 83.19,64.531 C 59.641,43.874 36.898,25.812 15.257,10.478 l 47.82,-47.823 c 15.336,21.643 33.396,44.386 54.054,67.937 z"
             style="fill:#f2f2f2;fill-opacity:1;fill-rule:evenodd;stroke:none"
             id="path3084" />
        </g>
        <g
           id="g3086"
           transform="translate(381.8896,397.7798)">
          <path
             d="m 0,0 -7.05,-14.139 -1.877,-1.865 C -62.56,-69.335 -142.645,-139.848 -217.921,-171.237 l 61.502,-61.501 c 31.389,75.276 101.902,155.36 155.232,208.994 l 1.866,1.877 14.138,7.052 z"
             style="fill:#666666;fill-opacity:1;fill-rule:evenodd;stroke:none"
             id="path3088" />
        </g>
        <g
           id="g3090"
           transform="translate(551.2363,374.394)">
          <path
             d="M 0,0 -177.916,177.915 -288.862,66.967 -271.621,49.726 c 9.43,9.429 49.18,-15.035 88.79,-54.643 39.606,-39.607 64.072,-79.36 54.642,-88.79 l 17.241,-17.241 z M 19.546,19.545 -158.37,197.46 -167.45,188.38 10.465,10.465 Z m 19.545,19.547 -177.913,177.915 -9.082,-9.082 L 30.011,30.012 Z M -110.948,244.882 66.967,66.967 49.557,49.558 -128.357,227.473 Z"
             style="fill:#cccccc;fill-opacity:1;fill-rule:evenodd;stroke:none"
             id="path3092" />
        </g>
        <g
           id="g3094"
           transform="translate(472.3936,453.2363)">
          <path
             d="m 0,0 -24.779,24.779 -94.234,-94.232 c 4.97,-4.499 9.998,-9.281 15.025,-14.306 3.432,-3.435 6.751,-6.868 9.944,-10.285 z m 19.546,19.546 -24.779,24.779 -9.081,-9.08 24.78,-24.78 z m 19.546,19.546 -9.08,-9.08 -24.78,24.78 9.081,9.08 z m -73.879,-4.306 -94.91,-94.912 c -16.735,14.05 -32.216,24.406 -43.888,29.497 L -71.478,71.478 Z m 19.548,19.546 -36.693,36.693 -9.081,-9.082 36.693,-36.691 z m 19.545,19.546 -36.693,36.692 -9.08,-9.08 36.692,-36.692 z M 42.188,91.746 24.777,74.337 49.557,49.558 66.968,66.967 Z M -4.511,138.445 32.18,101.753 14.771,84.344 -21.921,121.037 Z"
             style="fill:#dbdbdb;fill-opacity:1;fill-rule:evenodd;stroke:none"
             id="path3096" />
        </g>
        <g
           id="g3098"
           transform="translate(423.0469,280.6875)">
          <path
             d="m 0,0 c 9.431,9.43 -15.035,49.183 -54.642,88.79 -39.61,39.608 -79.359,64.072 -88.79,54.643 14.43,14.429 58.235,-5.982 97.844,-45.59 C -5.981,58.236 14.43,14.43 0,0"
             style="fill:#e6e6e6;fill-opacity:1;fill-rule:evenodd;stroke:none"
             id="path3100" />
        </g>
        <g
           id="g3102"
           transform="translate(172.9116,173.9834)">
          <path
             d="m 0,0 c -20.199,20.197 -52.946,20.197 -73.144,0 -20.199,-20.197 -20.199,-52.946 0,-73.144 20.198,-20.199 52.945,-20.199 73.144,0 C 20.197,-52.946 20.197,-20.197 0,0 m 31.092,31.093 c 37.373,-37.369 37.373,-97.959 0,-135.33 -37.369,-37.371 -97.96,-37.371 -135.331,0 -37.371,37.371 -37.371,97.961 0,135.33 37.371,37.372 97.962,37.372 135.331,0"
             style="fill:#cccccc;fill-opacity:1;fill-rule:evenodd;stroke:none"
             id="path3104" />
        </g>
        <g
           id="g3106"
           transform="translate(67.2827,203.6514)">
          <path
             d="m 0,0 31.105,-31.105 c 0.45,0.484 0.907,0.964 1.379,1.437 14.302,14.302 34.894,18.472 52.869,12.522 L 42.5,25.707 C 27.449,21.374 13.25,13.285 1.39,1.425 0.919,0.955 0.459,0.477 0,0 m -21.157,-34.263 c 3.321,9.389 8.147,18.363 14.487,26.544 l 31.572,-31.572 c -6.301,-10.306 -8.663,-22.338 -7.091,-33.938 z m 148.735,-107.702 -31.572,31.571 c -10.305,-6.301 -22.339,-8.665 -33.941,-7.091 l 38.967,-38.968 c 9.391,3.32 18.364,8.147 26.546,14.488 m 33.426,49.168 c -4.333,-15.051 -12.424,-29.25 -24.283,-41.108 -0.47,-0.472 -0.947,-0.933 -1.425,-1.392 l -31.107,31.108 c 0.484,0.448 0.966,0.904 1.44,1.377 14.302,14.302 18.471,34.895 12.52,52.87 z"
             style="fill:#e6e6e6;fill-opacity:1;fill-rule:evenodd;stroke:none"
             id="path3108" />
        </g>
        <g
           id="g3110"
           transform="translate(182.084,183.1563)">
          <path
             d="m 0,0 c 25.264,-25.259 25.264,-66.229 0,-91.491 -25.261,-25.261 -66.229,-25.261 -91.491,0 -25.262,25.262 -25.262,66.232 0,91.491 25.262,25.264 66.23,25.264 91.491,0 m 12.747,-104.235 c 32.307,32.306 32.307,84.674 0,116.982 -32.308,32.307 -84.677,32.307 -116.983,0 -32.308,-32.308 -32.308,-84.676 0,-116.982 32.306,-32.308 84.675,-32.308 116.983,0"
             style="fill:#4d4d4d;fill-opacity:1;fill-rule:evenodd;stroke:none"
             id="path3112" />
        </g>
      </g>
    </g>
  </g>
</svg>
