<svg width="448.20000000000005" height="124.11692307692309" viewBox="0 0 390 108" class="css-1j8o68f"><defs id="SvgjsDefs1154"></defs><g id="SvgjsG1155" featurekey="rootContainer" transform="matrix(1,0,0,1,0,0)" fill="#000000"><rect xmlns="http://www.w3.org/2000/svg" width="390" height="108" rx="10" ry="10"></rect></g><g id="SvgjsG1156" featurekey="nameFeature-0" transform="matrix(1.8561732756397407,0,0,1.8561732756397407,14.282985567551991,-0.19516191101299185)" fill="#ffffff"><path d="M3.24 36.68 l0 -25.56 l7.68 0 l0 11.44 c1.56 -1.6 4.12 -3.4 8.56 -3.4 c6.72 0 11.36 4.04 11.36 10.68 c0 6.88 -4.8 10.92 -11.16 10.92 c-5 0 -7.24 -2 -9 -4.08 c0 1.12 -0.04 2.2 -0.16 3.32 l-7.44 0 c0.12 -1.08 0.16 -2.08 0.16 -3.32 z M22.68 29.84 c0 -3.52 -2.4 -6.04 -5.8 -6.04 c-3.48 0 -5.96 2.44 -5.96 6.32 c0 3.56 2.48 6 5.96 6 c3.96 0 5.8 -3.04 5.8 -6.28 z M61.96 19.92 l0 15.96 c0 1.28 0.04 2.76 0.16 4.12 l-7.44 0 c-0.08 -1.2 -0.16 -2.4 -0.16 -3.6 l-0.08 0 c-2 2.68 -5 4.36 -8.52 4.36 c-7.32 0 -10.08 -4.16 -10.08 -9.4 l0 -11.44 l7.68 0 l0 10.28 c0 3.2 1.4 5.44 4.88 5.44 c3.16 0 5.88 -2.44 5.88 -6.88 l0 -8.84 l7.68 0 z M71.76 47.68 l4.36 -7.68 l-10.32 -20.08 l8.96 0 l5.76 13.8 l6.16 -13.8 l7.56 0 l-14.32 27.76 l-8.16 0 z M100.4 40 l0 -15.2 l-4.64 0 l0 -4.88 l4.64 0 c0 -7.76 3.56 -9.04 10.92 -9.04 c0.84 0 2.52 0.12 3.36 0.24 l0 4.56 c-0.6 -0.08 -1.32 -0.16 -2.08 -0.16 c-2.96 0 -4.4 0.68 -4.4 4.4 l6.04 0 l0 4.88 l-6.16 0 l0 15.2 l-7.68 0 z M134.48000000000002 31.240000000000002 l-3.2 0 c-5.16 0 -6.24 1.36 -6.24 3.04 c0 1.24 1.16 2.08 3.32 2.08 c5 0 6.12 -3.04 6.12 -5.12 z M126.2 25.84 l-7.92 0 c0.4 -5.24 6.28 -6.68 11.56 -6.68 c7.84 0 12.32 1.88 12.32 8.68 l0 7.68 c0 1.48 0.04 3 0.16 4.48 l-7.44 0 c-0.08 -0.68 -0.16 -2.16 -0.16 -3.24 l-0.08 0 c-1.84 3.04 -5.28 4 -8.68 4 c-5.72 0 -9.08 -2.32 -9.08 -6.52 c0 -4.76 4.48 -6.92 12 -6.92 l5.6 0 c0 -3.2 -1.48 -4 -4.52 -4 c-2.84 0 -3.72 1.12 -3.76 2.52 z M146.92000000000002 33.72 l7.92 0 c0 1.08 0.36 1.8 0.96 2.28 s1.52 0.6 2.52 0.6 c1.6 0 4 -0.24 4 -2.2 c0 -1.4 -1.8 -1.88 -3.36 -2.12 l-5.32 -0.84 c-3.84 -0.6 -6.08 -2.44 -6.08 -5.56 c0 -5.72 6.56 -6.72 10.96 -6.72 c8.72 0 11.08 2.52 11.24 6.72 l-7.68 0 c-0.12 -1.08 -0.52 -1.72 -1 -2.04 c-0.56 -0.36 -1.76 -0.52 -2.72 -0.52 c-1.24 0 -2.88 0.52 -2.88 1.76 c0 1.44 1.88 1.8 3.52 2.08 l5.2 0.84 c4.4 0.72 6.04 2.68 6.04 6 c0 6.12 -7.76 6.76 -12.2 6.76 c-10.04 0 -10.84 -4.08 -11.12 -7.04 z M172.56 24.8 l0 -4.88 l4.92 0 l0 -4.08 l7.68 -2.8 l0 6.88 l6.48 0 l0 4.88 l-6.48 0 l0 6.28 c0 2.8 0.36 4.28 3.44 4.28 c0.72 0 1.84 -0.08 3.04 -0.24 l0 4.88 c-0.72 0.12 -2.76 0.48 -5.16 0.48 c-5.88 0 -9 -2.28 -9 -7.16 l0 -8.52 l-4.92 0 z"></path></g></svg>