<svg width="418.6930458940932" height="295.809375" viewBox="0 0 350 247.27728885229288" class="css-1j8o68f"><defs id="SvgjsDefs1324"></defs><g id="SvgjsG1325" featurekey="symbolFeature-0" transform="matrix(2.2319381044299216,0,0,2.2319381044299216,63.40399302324733,-44.63876208859843)" fill="#4c5d6d"><path xmlns="http://www.w3.org/2000/svg" d="M81.19,42.661c-0.413-1.272-1.512-2.2-2.836-2.391l-17.414-2.531l-7.788-15.781C52.559,20.76,51.337,20,50,20  c-1.337,0-2.559,0.76-3.151,1.958l-7.788,15.781L21.646,40.27c-1.324,0.191-2.423,1.119-2.837,2.391  c-0.414,1.272-0.068,2.668,0.889,3.603L32.3,58.547l-2.975,17.345c-0.226,1.318,0.315,2.651,1.397,3.437  C31.334,79.773,32.06,80,32.788,80c0.56,0,1.121-0.133,1.635-0.404L50,71.407l15.576,8.189C66.09,79.867,66.652,80,67.211,80  c0.729,0,1.454-0.227,2.065-0.671c1.082-0.786,1.624-2.119,1.398-3.437L67.7,58.547l12.602-12.283  C81.259,45.33,81.604,43.934,81.19,42.661z"></path></g><g id="SvgjsG1326" featurekey="fiAKjI-0" transform="matrix(4.060324610363213,0,0,4.060324610363213,-3.4106713561478177,129.47564144440895)" fill="#4c5d6d"><path d="M0.84 20 l0 -13.7 l5.64 0 c3.06 0 4.42 1.7 4.42 3.72 c0 1.22 -0.58 2.2 -1.72 2.78 c1.72 0.52 2.64 1.68 2.64 3.28 c0 2.24 -1.58 3.92 -4.82 3.92 l-6.16 0 z M6.26 8.96 l-2.32 0 l0 2.8 l2.32 0 c1.06 0 1.6 -0.6 1.6 -1.42 c0 -0.8 -0.54 -1.38 -1.6 -1.38 z M6.82 14.379999999999999 l-2.88 0 l0 2.96 l2.9 0 c1.2 0 1.88 -0.6 1.88 -1.44 c0 -0.9 -0.68 -1.52 -1.9 -1.52 z M18.94 20.24 c-3.84 0 -5.94 -2.28 -5.94 -5.68 l0 -8.26 l3.1 0 l0 7.84 c0 2.08 1.02 3.22 2.82 3.22 c1.78 0 2.78 -1.14 2.78 -3.22 l0 -7.84 l3.1 0 l0 8.26 c0 3.4 -2.08 5.68 -5.86 5.68 z M33.84 20 l-3.12 0 l0 -5.12 l-4.98 -8.58 l3.42 0 l3.16 5.76 l3.18 -5.76 l3.32 0 l-4.98 8.6 l0 5.1 z M48.980000000000004 15.14 l-6.06 0 l0 4.86 l-3.1 0 l0 -13.7 l9.68 0 l0 2.84 l-6.58 0 l0 3.28 l6.06 0 l0 2.72 z M58.56 14.9 l-1.78 -5.36 l-1.78 5.36 l3.56 0 z M60.260000000000005 20 l-0.78 -2.36 l-5.38 0 l-0.78 2.36 l-3.18 0 l4.84 -13.7 l3.8 0 l4.82 13.7 l-3.34 0 z M69.54 20.26 c-3.46 0 -5.36 -1.72 -5.54 -4.54 l3.1 0 c0.06 1.04 0.66 2.08 2.52 2.08 c1.56 0 2.36 -0.62 2.36 -1.48 c0 -1.06 -1.34 -1.34 -2.9 -1.68 c-2.18 -0.52 -4.84 -1.16 -4.84 -4.42 c0 -2.4 1.86 -4.18 5.14 -4.18 c3.34 0 5.18 1.82 5.38 4.5 l-3.12 0 c-0.06 -1.1 -0.66 -1.98 -2.34 -1.98 c-1.24 0 -2.06 0.5 -2.06 1.4 c0 1.16 1.36 1.48 2.92 1.84 c2.24 0.5 4.92 1.06 4.92 4.14 c0 2.5 -1.96 4.32 -5.54 4.32 z M82.96000000000001 20 l-3.1 0 l0 -10.86 l-4.08 0 l0 -2.84 l11.26 0 l0 2.84 l-4.08 0 l0 10.86 z"></path></g></svg>