<svg version="1.1" viewBox="0 0 640 400" class="rounded-lg overflow-hidden" xmlns="http://www.w3.org/2000/svg" xmlns:xlink="http://www.w3.org/1999/xlink" xmlns:svgjs="http://svgjs.dev/svgjs" matcher="0.36517689614760807"><g viewBox="0 0 640 400" matcher="0.36517689614760807"><g matcher="0.36517689614760807"><g matcher="0.36517689614760807"><g matcher="0.36517689614760807"><svg viewBox="0 0 640 400" data-background-color="#f8f8f8" preserveAspectRatio="xMidYMid meet" height="400" width="640" xmlns="http://www.w3.org/2000/svg" xmlns:xlink="http://www.w3.org/1999/xlink"><rect width="640" height="400" x="0" y="0" opacity="1" fill="#f8f8f8" data-fill-palette-color="background" id="background"></rect><g id="tight-bounds" transform="matrix(1,0,0,1,141.93974,134.7466021574344)"><svg viewBox="0 0 356.12052 130.50679568513118" height="130.50679568513118" width="356.12052"><g><svg viewBox="0 0 356.12052 130.50679568513118" height="130.50679568513118" width="356.12052"><g><svg viewBox="0 0 356.12052 130.50679568513118" height="130.50679568513118" width="356.12052"><g><path d="M0 130.507v-130.507h356.121v130.507z" fill="#61777f" stroke="transparent" stroke-width="0" rx="0%" data-fill-palette-color="tertiary"></path><path d="M3.283 127.224v-123.941h349.554v123.941z" fill="#f8f8f8" stroke="transparent" stroke-width="0" rx="0%" data-fill-palette-color="quaternary"></path><path d="M9.85 120.657v-110.807h336.421v110.807z" fill="#61777f" stroke="transparent" stroke-width="0" data-fill-palette-color="tertiary"></path></g><g transform="matrix(1,0,0,1,19.69974,19.69974)" id="textblocktransform"><svg viewBox="0 0 316.72104 91.1073156851312" height="91.1073156851312" width="316.72104" id="textblock"><g><svg viewBox="0 0 316.72104 91.1073156851312" height="91.1073156851312" width="316.72104"><g transform="matrix(1,0,0,1,0,0)"><svg width="316.72104" viewBox="3.799999952316284 -35.70000076293945 154.33999633789062 44.400001525878906" height="91.1073156851312" data-palette-color="#f8f8f8"><path d="M7.75-3.75L7.75 0 3.8 0 3.8-35.35 7.75-35.35 7.75-21.55Q10.5-25.75 15.45-25.75L15.45-25.75Q20.25-25.75 23.3-22.08 26.35-18.4 26.35-12.45L26.35-12.45Q26.35-7.1 23.48-3.35 20.6 0.4 15.55 0.4L15.55 0.4Q10.45 0.4 7.75-3.75L7.75-3.75ZM7.75-12.85L7.75-12.85Q7.75-7.8 9.93-5.5 12.1-3.2 15.2-3.2L15.2-3.2Q18.25-3.2 20.25-5.75 22.25-8.3 22.25-12.4L22.25-12.4Q22.25-17.1 20.18-19.63 18.1-22.15 14.95-22.15L14.95-22.15Q12.25-22.15 10-19.9 7.75-17.65 7.75-12.85ZM51.85-25.35L51.85 0 47.9 0 47.9-4.4Q45.9 0.3 39.95 0.3L39.95 0.3Q36.2 0.3 34.02-1.93 31.85-4.15 31.85-7.9L31.85-7.9 31.85-25.35 35.8-25.35 35.8-8.9Q35.8-6.15 37.2-4.7 38.6-3.25 41-3.25L41-3.25Q44.15-3.25 46.02-5.45 47.9-7.65 47.9-11.4L47.9-11.4 47.9-25.35 51.85-25.35ZM79.3-25.35L70.15-0.65Q68.2 4.5 65.52 6.6 62.85 8.7 59.4 8.7L59.4 8.7Q58.1 8.7 57.3 8.45L57.3 8.45 57.3 4.9Q58.05 5.1 59 5.1L59 5.1Q64.05 5.1 66.15-0.65L66.15-0.65 55.9-25.35 60.35-25.35 63.65-17 68.09-5.5Q68.5-6.8 72.09-17L72.09-17 75.05-25.35 79.3-25.35ZM95.54-25.35L95.54-22.15 89.94-22.15 89.94 0 85.99 0 85.99-22.15 81.64-22.15 81.64-25.35 85.99-25.35 85.99-27.7Q85.99-31.4 87.97-33.55 89.94-35.7 93.44-35.7L93.44-35.7Q94.64-35.7 95.89-35.35L95.89-35.35 95.89-31.75Q94.69-32.15 93.59-32.15L93.59-32.15Q91.99-32.15 90.97-31.05 89.94-29.95 89.94-27.65L89.94-27.65 89.94-25.35 95.54-25.35ZM107.99-3.05L107.99-3.05Q110.69-3.05 112.29-4.58 113.89-6.1 113.89-8.45L113.89-8.45 113.89-11.7 109.49-11.7Q106.29-11.7 104.69-10.45 103.09-9.2 103.09-7.3 103.09-5.4 104.34-4.23 105.59-3.05 107.99-3.05ZM113.94 0L113.94-3Q111.99 0.25 106.84 0.25L106.84 0.25Q103.29 0.25 101.12-1.85 98.94-3.95 98.94-7.15L98.94-7.15Q98.94-10.8 101.72-12.83 104.49-14.85 109.29-14.85L109.29-14.85 113.89-14.85 113.89-16.15Q113.89-19.15 112.54-20.68 111.19-22.2 107.99-22.2L107.99-22.2Q103.94-22.2 100.79-20.05L100.79-20.05 100.79-24Q103.64-25.75 108.29-25.75L108.29-25.75Q117.84-25.75 117.84-16.05L117.84-16.05 117.84 0 113.94 0ZM140.09-6.75L140.09-6.75Q140.09-3.5 137.81-1.6 135.54 0.3 131.59 0.3L131.59 0.3Q126.99 0.3 124.14-1.25L124.14-1.25 124.14-5.1Q127.49-3.1 131.34-3.1L131.34-3.1Q133.64-3.1 134.84-4 136.04-4.9 136.04-6.45L136.04-6.45Q136.04-8.25 134.71-9.25 133.39-10.25 130.29-11.5L130.29-11.5Q127.44-12.6 125.71-14.25 123.99-15.9 123.99-18.7L123.99-18.7Q123.99-21.85 126.36-23.73 128.74-25.6 132.29-25.6L132.29-25.6Q136.24-25.6 138.64-24.5L138.64-24.5 138.64-20.75Q136.34-22.15 132.34-22.15L132.34-22.15Q130.34-22.15 129.16-21.23 127.99-20.3 127.99-18.85L127.99-18.85Q127.99-17.95 128.34-17.28 128.69-16.6 129.71-15.95 130.74-15.3 131.21-15.08 131.69-14.85 133.29-14.15L133.29-14.15Q136.49-12.85 138.29-11.2 140.09-9.55 140.09-6.75ZM158.14-4.4L158.14-0.65Q156.49 0.25 154.44 0.25L154.44 0.25Q146.94 0.25 146.94-7.4L146.94-7.4 146.94-22.15 142.89-22.15 142.89-25.35 146.94-25.35 146.94-31.65 150.89-31.65 150.89-25.35 157.89-25.35 157.89-22.15 150.89-22.15 150.89-7.3Q150.89-3.25 154.69-3.25L154.69-3.25Q156.64-3.25 158.14-4.4L158.14-4.4Z" opacity="1" transform="matrix(1,0,0,1,0,0)" fill="#f8f8f8" class="wordmark-text-0" data-fill-palette-color="quaternary" id="text-0"></path></svg></g></svg></g></svg></g></svg></g><g></g></svg></g><defs></defs></svg><rect width="356.12052" height="130.50679568513118" fill="none" stroke="none" visibility="hidden"></rect></g></svg></g></g></g></g></svg>