<svg width="153" height="408" viewBox="0 0 153 408" fill="none" xmlns="http://www.w3.org/2000/svg">
<path d="M-97.4152 0C-100.518 0 -103 2.5092 -103 5.64569C-103 8.71248 -100.518 11.2914 -97.4152 11.2914C34.5566 11.2217 141.568 119.326 141.637 252.801C141.568 255.938 144.05 258.447 147.084 258.517C150.118 258.587 152.669 256.077 152.738 253.011C152.738 113.193 40.6933 0 -97.4152 0Z" fill="#CDDA3F"/>
<path d="M55.1836 95.6934C54.4251 94.9288 53.4597 94.5117 52.2874 94.5117C50.0119 94.5117 48.219 96.319 48.219 98.6128C48.219 99.7249 48.7017 100.768 49.3913 101.532C87.455 139.901 111.107 192.937 111.245 251.395C111.383 309.852 87.9377 362.749 50.0119 400.979C49.2534 401.744 48.7707 402.786 48.7707 403.899C48.7707 406.192 50.6325 408 52.8391 408C54.0113 408 55.0457 407.513 55.7352 406.749C95.1781 366.989 119.451 312.077 119.382 251.325C119.313 190.643 94.7644 135.592 55.1836 95.6934Z" fill="#CDDA3F"/>
</svg>
